<svg xmlns="http://www.w3.org/2000/svg" width="48" height="48" viewBox="0 0 48 48" fill="none">
  <rect width="48" height="48" rx="10" fill="#09090b"/>
  <g fill="#e4e4e7">
    <!-- V pixel grid (echoes the hero wordmark) -->
    <rect x="11"   y="5.5"  width="4" height="4" rx="1"/>
    <rect x="33"   y="5.5"  width="4" height="4" rx="1"/>
    <rect x="11"   y="11"   width="4" height="4" rx="1"/>
    <rect x="33"   y="11"   width="4" height="4" rx="1"/>
    <rect x="11"   y="16.5" width="4" height="4" rx="1"/>
    <rect x="33"   y="16.5" width="4" height="4" rx="1"/>
    <rect x="11"   y="22"   width="4" height="4" rx="1"/>
    <rect x="33"   y="22"   width="4" height="4" rx="1"/>
    <rect x="11"   y="27.5" width="4" height="4" rx="1"/>
    <rect x="33"   y="27.5" width="4" height="4" rx="1"/>
    <rect x="16.5" y="33"   width="4" height="4" rx="1"/>
    <rect x="27.5" y="33"   width="4" height="4" rx="1"/>
  </g>
  <!-- red tip dot -->
  <rect x="22" y="38.5" width="4" height="4" rx="2" fill="#ef4444"/>
</svg>
